ffmpeg started on 2016-12-02 at 14:31:34
Report written to "Output/x264/results/ffmpeg/old_town_cross_2160p50veryslow3000k.log"
Command line:
Tools/ffmpeg/ffmpeg -benchmark -y -i Input/y4m/old_town_cross_2160p50.y4m -c:v libx264 -preset veryslow -b:v 3000k -an Output/x264/encoded/old_town_cross_2160p50veryslow3000k.mkv
ffmpeg version N-82227-gdb23fde Copyright (c) 2000-2016 the FFmpeg developers
  built with gcc 5.4.0 (Ubuntu 5.4.0-6ubuntu1~16.04.2) 20160609
  configuration: --prefix=/home/jaroslav/ffmpeg_build --pkg-config-flags=--static --extra-cflags=-I/home/jaroslav/ffmpeg_build/include --extra-ldflags=-L/home/jaroslav/ffmpeg_build/lib --bindir=/home/jaroslav/bin --enable-gpl --enable-libass --enable-libfdk-aac --enable-libfreetype --enable-libmp3lame --enable-libopus --enable-libtheora --enable-libvorbis --enable-libvpx --enable-libx264 --enable-libx265 --enable-nvenc --enable-libmfx --enable-libxvid --enable-libgsm --enable-libopencore-amrnb --enable-version3 --enable-nonfree
  libavutil      55. 35.100 / 55. 35.100
  libavcodec     57. 66.101 / 57. 66.101
  libavformat    57. 57.100 / 57. 57.100
  libavdevice    57.  2.100 / 57.  2.100
  libavfilter     6. 66.100 /  6. 66.100
  libswscale      4.  3.100 /  4.  3.100
  libswresample   2.  4.100 /  2.  4.100
  libpostproc    54.  2.100 / 54.  2.100
Input #0, yuv4mpegpipe, from 'Input/y4m/old_town_cross_2160p50.y4m':
  Duration: 00:00:10.00, start: 0.000000, bitrate: 4976642 kb/s
    Stream #0:0: Video: rawvideo (I420 / 0x30323449), yuv420p(progressive), 3840x2160, SAR 1:1 DAR 16:9, 50 fps, 50 tbr, 50 tbn, 50 tbc
[libx264 @ 0x443e120] using SAR=1/1
[libx264 @ 0x443e120] DPB size (16 frames, 518400 mbs) > level limit (5 frames, 184320 mbs)
[libx264 @ 0x443e120] using cpu capabilities: MMX2 SSE2Fast SSSE3 SSE4.2 AVX FMA3 AVX2 LZCNT BMI2
[libx264 @ 0x443e120] profile High, level 5.2
[libx264 @ 0x443e120] 264 - core 148 - H.264/MPEG-4 AVC codec - Copyleft 2003-2016 - http://www.videolan.org/x264.html - options: cabac=1 ref=16 deblock=1:0:0 analyse=0x3:0x133 me=umh subme=10 psy=1 psy_rd=1.00:0.00 mixed_ref=1 me_range=24 chroma_me=1 trellis=2 8x8dct=1 cqm=0 deadzone=21,11 fast_pskip=1 chroma_qp_offset=-2 threads=6 lookahead_threads=1 sliced_threads=0 nr=0 decimate=1 interlaced=0 bluray_compat=0 constrained_intra=0 bframes=8 b_pyramid=2 b_adapt=2 b_bias=0 direct=3 weightb=1 open_gop=0 weightp=2 keyint=250 keyint_min=25 scenecut=40 intra_refresh=0 rc_lookahead=60 rc=abr mbtree=1 bitrate=3000 ratetol=1.0 qcomp=0.60 qpmin=0 qpmax=69 qpstep=4 ip_ratio=1.40 aq=1:1.00
Output #0, matroska, to 'Output/x264/encoded/old_town_cross_2160p50veryslow3000k.mkv':
  Metadata:
    encoder         : Lavf57.57.100
    Stream #0:0: Video: h264 (libx264) (H264 / 0x34363248), yuv420p, 3840x2160 [SAR 1:1 DAR 16:9], q=-1--1, 3000 kb/s, 50 fps, 1k tbn, 50 tbc
    Metadata:
      encoder         : Lavc57.66.101 libx264
    Side data:
      cpb: bitrate max/min/avg: 0/0/3000000 buffer size: 0 vbv_delay: -1
Stream mapping:
  Stream #0:0 -> #0:0 (rawvideo (native) -> h264 (libx264))
Press [q] to stop, [?] for help
frame=   60 fps=0.0 q=0.0 size=       0kB time=00:00:00.00 bitrate=N/A speed=   0x    frame=   72 fps=8.0 q=0.0 size=       0kB time=00:00:00.00 bitrate=N/A speed=   0x    frame=   77 fps=7.9 q=44.0 size=       1kB time=-00:00:00.01 bitrate=N/A speed=N/A    frame=   82 fps=6.9 q=48.0 size=       1kB time=00:00:00.08 bitrate=  72.7kbits/s speed=0.00679x    frame=   88 fps=6.8 q=50.0 size=       1kB time=00:00:00.20 bitrate=  29.3kbits/s speed=0.0156x    frame=   91 fps=6.2 q=50.0 size=       1kB time=00:00:00.26 bitrate=  22.6kbits/s speed=0.0176x    frame=   97 fps=6.2 q=49.0 size=       1kB time=00:00:00.38 bitrate=  15.5kbits/s speed=0.0242x    frame=   99 fps=6.1 q=46.0 size=       1kB time=00:00:00.42 bitrate=  14.0kbits/s speed=0.0259x    frame=  100 fps=5.7 q=47.0 size=       1kB time=00:00:00.44 bitrate=  13.4kbits/s speed=0.0249x    frame=  105 fps=5.8 q=46.0 size=       1kB time=00:00:00.54 bitrate=  10.9kbits/s speed=0.0297x    frame=  106 fps=5.5 q=46.0 size=       1kB time=00:00:00.56 bitrate=  10.5kbits/s speed=0.0292x    frame=  108 fps=5.3 q=46.0 size=       1kB time=00:00:00.60 bitrate=   9.8kbits/s speed=0.0296x    frame=  113 fps=5.3 q=45.0 size=       1kB time=00:00:00.70 bitrate=   8.4kbits/s speed=0.0331x    frame=  114 fps=5.2 q=45.0 size=       1kB time=00:00:00.72 bitrate=   8.2kbits/s speed=0.0326x    frame=  117 fps=5.0 q=45.0 size=       1kB time=00:00:00.78 bitrate=   7.5kbits/s speed=0.0335x    frame=  122 fps=5.0 q=45.0 size=       1kB time=00:00:00.88 bitrate=   6.7kbits/s speed=0.036x    frame=  123 fps=4.8 q=44.0 size=       1kB time=00:00:00.90 bitrate=   6.5kbits/s speed=0.0351x    frame=  126 fps=4.8 q=44.0 size=       1kB time=00:00:00.96 bitrate=   6.1kbits/s speed=0.0363x    frame=  129 fps=4.7 q=44.0 size=       1kB time=00:00:01.02 bitrate=   5.8kbits/s speed=0.0371x    frame=  132 fps=4.5 q=44.0 size=       1kB time=00:00:01.08 bitrate=   5.4kbits/s speed=0.0368x    frame=  135 fps=4.5 q=44.0 size=       1kB time=00:00:01.14 bitrate=   5.2kbits/s speed=0.0378x    frame=  138 fps=4.4 q=44.0 size=       1kB time=00:00:01.20 bitrate=   4.9kbits/s speed=0.0381x    frame=  140 fps=4.3 q=44.0 size=       1kB time=00:00:01.24 bitrate=   4.7kbits/s speed=0.0378x    frame=  144 fps=4.2 q=43.0 size=       1kB time=00:00:01.32 bitrate=   4.5kbits/s speed=0.0389x    frame=  146 fps=4.2 q=43.0 size=       1kB time=00:00:01.36 bitrate=   4.3kbits/s speed=0.0389x    frame=  147 fps=4.1 q=43.0 size=       1kB time=00:00:01.38 bitrate=   4.3kbits/s speed=0.0389x    frame=  149 fps=4.1 q=43.0 size=       1kB time=00:00:01.42 bitrate=   4.1kbits/s speed=0.039x    frame=  152 fps=4.1 q=43.0 size=       1kB time=00:00:01.48 bitrate=   4.0kbits/s speed=0.04x    frame=  154 fps=4.0 q=43.0 size=       1kB time=00:00:01.52 bitrate=   3.9kbits/s speed=0.0398x    frame=  155 fps=4.0 q=43.0 size=       1kB time=00:00:01.54 bitrate=   3.8kbits/s speed=0.0393x    frame=  158 fps=4.0 q=43.0 size=       1kB time=00:00:01.60 bitrate=   3.7kbits/s speed=0.0401x    frame=  160 fps=3.9 q=43.0 size=       1kB time=00:00:01.64 bitrate=   3.6kbits/s speed=0.0403x    frame=  161 fps=3.9 q=43.0 size=       1kB time=00:00:01.66 bitrate=   3.5kbits/s speed=0.0401x    frame=  163 fps=3.9 q=43.0 size=       1kB time=00:00:01.70 bitrate=   3.5kbits/s speed=0.0405x    frame=  165 fps=3.8 q=43.0 size=       1kB time=00:00:01.74 bitrate=   3.4kbits/s speed=0.0403x    frame=  167 fps=3.8 q=43.0 size=       1kB time=00:00:01.78 bitrate=   3.3kbits/s speed=0.0407x    frame=  168 fps=3.8 q=43.0 size=       1kB time=00:00:01.80 bitrate=   3.3kbits/s speed=0.0405x    frame=  171 fps=3.8 q=43.0 size=       1kB time=00:00:01.86 bitrate=   3.2kbits/s speed=0.0408x    frame=  174 fps=3.7 q=43.0 size=       1kB time=00:00:01.92 bitrate=   3.1kbits/s speed=0.0408x    frame=  176 fps=3.7 q=43.0 size=       1kB time=00:00:01.96 bitrate=   3.0kbits/s speed=0.041x    frame=  180 fps=3.6 q=43.0 size=       1kB time=00:00:02.04 bitrate=   2.9kbits/s speed=0.0414x    frame=  182 fps=3.6 q=42.0 size=       1kB time=00:00:02.08 bitrate=   2.8kbits/s speed=0.0411x    frame=  185 fps=3.6 q=42.0 size=       1kB time=00:00:02.14 bitrate=   2.8kbits/s speed=0.0414x    frame=  188 fps=3.6 q=42.0 size=       1kB time=00:00:02.20 bitrate=   2.7kbits/s speed=0.0418x    frame=  190 fps=3.5 q=42.0 size=       1kB time=00:00:02.24 bitrate=   2.6kbits/s speed=0.0418x    frame=  191 fps=3.5 q=42.0 size=       1kB time=00:00:02.26 bitrate=   2.6kbits/s speed=0.0415x    frame=  194 fps=3.5 q=42.0 size=       1kB time=00:00:02.32 bitrate=   2.5kbits/s speed=0.0416x    frame=  196 fps=3.5 q=42.0 size=       1kB time=00:00:02.36 bitrate=   2.5kbits/s speed=0.042x    frame=  197 fps=3.5 q=42.0 size=       1kB time=00:00:02.38 bitrate=   2.5kbits/s speed=0.0418x    frame=  200 fps=3.4 q=42.0 size=       1kB time=00:00:02.44 bitrate=   2.4kbits/s speed=0.0419x    frame=  203 fps=3.4 q=42.0 size=       1kB time=00:00:02.50 bitrate=   2.4kbits/s speed=0.0423x    frame=  204 fps=3.4 q=42.0 size=       1kB time=00:00:02.52 bitrate=   2.3kbits/s speed=0.0422x    frame=  207 fps=3.4 q=42.0 size=       1kB time=00:00:02.58 bitrate=   2.3kbits/s speed=0.0422x    frame=  210 fps=3.3 q=42.0 size=       1kB time=00:00:02.64 bitrate=   2.2kbits/s speed=0.042x    frame=  213 fps=3.3 q=42.0 size=       1kB time=00:00:02.70 bitrate=   2.2kbits/s speed=0.0422x    frame=  216 fps=3.3 q=42.0 size=       1kB time=00:00:02.76 bitrate=   2.1kbits/s speed=0.0426x    frame=  217 fps=3.3 q=42.0 size=       1kB time=00:00:02.78 bitrate=   2.1kbits/s speed=0.0424x    frame=  219 fps=3.3 q=42.0 size=       1kB time=00:00:02.82 bitrate=   2.1kbits/s speed=0.0424x    frame=  220 fps=3.3 q=42.0 size=       1kB time=00:00:02.84 bitrate=   2.1kbits/s speed=0.0423x    frame=  223 fps=3.3 q=42.0 size=       1kB time=00:00:02.90 bitrate=   2.0kbits/s speed=0.0427x    frame=  225 fps=3.3 q=42.0 size=       1kB time=00:00:02.94 bitrate=   2.0kbits/s speed=0.0426x    frame=  227 fps=3.3 q=42.0 size=       1kB time=00:00:02.98 bitrate=   2.0kbits/s speed=0.0429x    frame=  229 fps=3.3 q=42.0 size=       1kB time=00:00:03.02 bitrate=   1.9kbits/s speed=0.043x    frame=  230 fps=3.2 q=42.0 size=       1kB time=00:00:03.04 bitrate=   1.9kbits/s speed=0.0429x    frame=  234 fps=3.2 q=42.0 size=       1kB time=00:00:03.12 bitrate=   1.9kbits/s speed=0.043x    frame=  236 fps=3.2 q=42.0 size=       1kB time=00:00:03.16 bitrate=   1.9kbits/s speed=0.0432x    frame=  238 fps=3.2 q=42.0 size=       1kB time=00:00:03.20 bitrate=   1.8kbits/s speed=0.0434x    frame=  240 fps=3.2 q=42.0 size=       1kB time=00:00:03.24 bitrate=   1.8kbits/s speed=0.043x    frame=  244 fps=3.2 q=42.0 size=       1kB time=00:00:03.32 bitrate=   1.8kbits/s speed=0.0438x    frame=  246 fps=3.2 q=42.0 size=       1kB time=00:00:03.36 bitrate=   1.8kbits/s speed=0.0435x    frame=  248 fps=3.2 q=42.0 size=       1kB time=00:00:03.40 bitrate=   1.7kbits/s speed=0.0435x    frame=  252 fps=3.2 q=42.0 size=       1kB time=00:00:03.48 bitrate=   1.7kbits/s speed=0.0436x    frame=  255 fps=3.2 q=42.0 size=       1kB time=00:00:03.54 bitrate=   1.7kbits/s speed=0.0438x    frame=  258 fps=3.1 q=42.0 size=       1kB time=00:00:03.60 bitrate=   1.6kbits/s speed=0.0438x    frame=  261 fps=3.1 q=42.0 size=       1kB time=00:00:03.66 bitrate=   1.6kbits/s speed=0.0437x    frame=  265 fps=3.1 q=42.0 size=       1kB time=00:00:03.74 bitrate=   1.6kbits/s speed=0.0442x    frame=  267 fps=3.1 q=42.0 size=       1kB time=00:00:03.78 bitrate=   1.6kbits/s speed=0.044x    frame=  268 fps=3.1 q=42.0 size=       1kB time=00:00:03.80 bitrate=   1.5kbits/s speed=0.0439x    frame=  270 fps=3.1 q=42.0 size=       1kB time=00:00:03.84 bitrate=   1.5kbits/s speed=0.044x    frame=  274 fps=3.1 q=42.0 size=       1kB time=00:00:03.92 bitrate=   1.5kbits/s speed=0.0441x    frame=  276 fps=3.1 q=42.0 size=       1kB time=00:00:03.96 bitrate=   1.5kbits/s speed=0.0442x    frame=  277 fps=3.1 q=42.0 size=       1kB time=00:00:03.98 bitrate=   1.5kbits/s speed=0.044x    frame=  280 fps=3.1 q=42.0 size=       1kB time=00:00:04.04 bitrate=   1.5kbits/s speed=0.0443x    frame=  282 fps=3.1 q=42.0 size=       1kB time=00:00:04.08 bitrate=   1.4kbits/s speed=0.0442x    frame=  283 fps=3.0 q=42.0 size=       1kB time=00:00:04.10 bitrate=   1.4kbits/s speed=0.044x    frame=  286 fps=3.1 q=42.0 size=       1kB time=00:00:04.16 bitrate=   1.4kbits/s speed=0.0444x    frame=  288 fps=3.0 q=42.0 size=       1kB time=00:00:04.20 bitrate=   1.4kbits/s speed=0.0442x    frame=  292 fps=3.0 q=42.0 size=       1kB time=00:00:04.28 bitrate=   1.4kbits/s speed=0.0445x    frame=  294 fps=3.0 q=42.0 size=       1kB time=00:00:04.32 bitrate=   1.4kbits/s speed=0.0444x    frame=  296 fps=3.0 q=42.0 size=       1kB time=00:00:04.36 bitrate=   1.4kbits/s speed=0.0443x    frame=  300 fps=3.0 q=42.0 size=       1kB time=00:00:04.44 bitrate=   1.3kbits/s speed=0.0445x    frame=  302 fps=3.0 q=42.0 size=       1kB time=00:00:04.48 bitrate=   1.3kbits/s speed=0.0446x    frame=  304 fps=3.0 q=42.0 size=       1kB time=00:00:04.52 bitrate=   1.3kbits/s speed=0.0443x    frame=  305 fps=3.0 q=42.0 size=       1kB time=00:00:04.54 bitrate=   1.3kbits/s speed=0.0442x    frame=  309 fps=3.0 q=42.0 size=       1kB time=00:00:04.62 bitrate=   1.3kbits/s speed=0.0448x    frame=  311 fps=3.0 q=42.0 size=       1kB time=00:00:04.66 bitrate=   1.3kbits/s speed=0.0444x    frame=  313 fps=2.9 q=42.0 size=       1kB time=00:00:04.70 bitrate=   1.3kbits/s speed=0.0436x    frame=  318 fps=2.9 q=42.0 size=       1kB time=00:00:04.80 bitrate=   1.2kbits/s speed=0.0441x    frame=  319 fps=2.9 q=42.0 size=       1kB time=00:00:04.82 bitrate=   1.2kbits/s speed=0.0438x    frame=  324 fps=2.9 q=42.0 size=       1kB time=00:00:04.92 bitrate=   1.2kbits/s speed=0.0445x    frame=  325 fps=2.9 q=42.0 size=    1661kB time=00:00:04.94 bitrate=2753.8kbits/s speed=0.0443x    frame=  331 fps=2.9 q=43.0 size=    1661kB time=00:00:05.06 bitrate=2688.5kbits/s speed=0.0447x    frame=  337 fps=2.9 q=43.0 size=    1661kB time=00:00:05.18 bitrate=2626.2kbits/s speed=0.0453x    frame=  340 fps=2.9 q=43.0 size=    1661kB time=00:00:05.24 bitrate=2596.2kbits/s speed=0.0451x    frame=  345 fps=3.0 q=43.0 size=    1661kB time=00:00:05.34 bitrate=2547.5kbits/s speed=0.0457x    frame=  346 fps=2.9 q=43.0 size=    1661kB time=00:00:05.36 bitrate=2538.0kbits/s speed=0.0456x    frame=  349 fps=2.9 q=42.0 size=    1661kB time=00:00:05.42 bitrate=2510.0kbits/s speed=0.0455x    frame=  354 fps=2.9 q=42.0 size=    1661kB time=00:00:05.52 bitrate=2464.5kbits/s speed=0.046x    frame=  356 fps=2.9 q=42.0 size=    1661kB time=00:00:05.56 bitrate=2446.8kbits/s speed=0.0459x    frame=  358 fps=2.9 q=42.0 size=    1661kB time=00:00:05.60 bitrate=2429.3kbits/s speed=0.0458x    frame=  363 fps=2.9 q=42.0 size=    1661kB time=00:00:05.70 bitrate=2386.7kbits/s speed=0.0462x    frame=  364 fps=2.9 q=42.0 size=    1661kB time=00:00:05.72 bitrate=2378.3kbits/s speed=0.0462x    frame=  366 fps=2.9 q=42.0 size=    1661kB time=00:00:05.76 bitrate=2361.8kbits/s speed=0.0463x    frame=  367 fps=2.9 q=42.0 size=    1661kB time=00:00:05.78 bitrate=2353.6kbits/s speed=0.0462x    frame=  371 fps=3.0 q=42.0 size=    1661kB time=00:00:05.86 bitrate=2321.5kbits/s speed=0.0466x    frame=  372 fps=2.9 q=42.0 size=    1661kB time=00:00:05.88 bitrate=2313.6kbits/s speed=0.0464x    frame=  374 fps=2.9 q=42.0 size=    1661kB time=00:00:05.92 bitrate=2298.0kbits/s speed=0.0464x    frame=  377 fps=2.9 q=42.0 size=    1661kB time=00:00:05.98 bitrate=2274.9kbits/s speed=0.0464x    frame=  378 fps=2.9 q=42.0 size=    1661kB time=00:00:06.00 bitrate=2267.4kbits/s speed=0.0463x    frame=  380 fps=2.9 q=42.0 size=    1661kB time=00:00:06.04 bitrate=2252.4kbits/s speed=0.0463x    frame=  383 fps=2.9 q=42.0 size=    1661kB time=00:00:06.10 bitrate=2230.2kbits/s speed=0.0464x    frame=  384 fps=2.9 q=42.0 size=    1661kB time=00:00:06.12 bitrate=2222.9kbits/s speed=0.0463x    frame=  387 fps=2.9 q=42.0 size=    1661kB time=00:00:06.18 bitrate=2201.3kbits/s speed=0.0464x    frame=  388 fps=2.9 q=42.0 size=    1661kB time=00:00:06.20 bitrate=2194.2kbits/s speed=0.0464x    frame=  390 fps=2.9 q=42.0 size=    1661kB time=00:00:06.24 bitrate=2180.2kbits/s speed=0.0464x    frame=  392 fps=2.9 q=42.0 size=    1661kB time=00:00:06.28 bitrate=2166.3kbits/s speed=0.0464x    frame=  395 fps=2.9 q=42.0 size=    1661kB time=00:00:06.34 bitrate=2145.8kbits/s speed=0.0466x    frame=  396 fps=2.9 q=42.0 size=    1661kB time=00:00:06.36 bitrate=2139.0kbits/s speed=0.0463x    frame=  398 fps=2.9 q=42.0 size=    1661kB time=00:00:06.40 bitrate=2125.7kbits/s speed=0.0464x    frame=  399 fps=2.9 q=42.0 size=    1661kB time=00:00:06.42 bitrate=2119.1kbits/s speed=0.0463x    frame=  402 fps=2.9 q=42.0 size=    1661kB time=00:00:06.48 bitrate=2099.4kbits/s speed=0.0464x    frame=  403 fps=2.9 q=42.0 size=    1661kB time=00:00:06.50 bitrate=2093.0kbits/s speed=0.0464x    frame=  405 fps=2.9 q=42.0 size=    1661kB time=00:00:06.54 bitrate=2080.2kbits/s speed=0.0464x    frame=  408 fps=2.9 q=42.0 size=    1661kB time=00:00:06.60 bitrate=2061.3kbits/s speed=0.0464x    frame=  410 fps=2.9 q=42.0 size=    1661kB time=00:00:06.64 bitrate=2048.9kbits/s speed=0.0463x    frame=  413 fps=2.9 q=42.0 size=    1661kB time=00:00:06.70 bitrate=2030.5kbits/s speed=0.0466x    frame=  414 fps=2.9 q=42.0 size=    1661kB time=00:00:06.72 bitrate=2024.5kbits/s speed=0.0465x    frame=  416 fps=2.9 q=42.0 size=    1661kB time=00:00:06.76 bitrate=2012.5kbits/s speed=0.0463x    frame=  419 fps=2.8 q=42.0 size=    1661kB time=00:00:06.82 bitrate=1994.8kbits/s speed=0.0463x    frame=  422 fps=2.8 q=42.0 size=    1661kB time=00:00:06.88 bitrate=1977.4kbits/s speed=0.0465x    frame=  425 fps=2.8 q=42.0 size=    1661kB time=00:00:06.94 bitrate=1960.3kbits/s speed=0.0463x    frame=  428 fps=2.8 q=42.0 size=    1661kB time=00:00:07.00 bitrate=1943.5kbits/s speed=0.0463x    frame=  431 fps=2.8 q=42.0 size=    1661kB time=00:00:07.06 bitrate=1927.0kbits/s speed=0.0464x    frame=  434 fps=2.8 q=42.0 size=    1661kB time=00:00:07.12 bitrate=1910.7kbits/s speed=0.0463x    frame=  437 fps=2.8 q=42.0 size=    1661kB time=00:00:07.18 bitrate=1894.8kbits/s speed=0.0462x    frame=  440 fps=2.8 q=42.0 size=    1661kB time=00:00:07.24 bitrate=1879.1kbits/s speed=0.0464x    frame=  443 fps=2.8 q=42.0 size=    1661kB time=00:00:07.30 bitrate=1863.6kbits/s speed=0.0463x    frame=  444 fps=2.8 q=42.0 size=    1661kB time=00:00:07.32 bitrate=1858.6kbits/s speed=0.0463x    frame=  446 fps=2.8 q=42.0 size=    1661kB time=00:00:07.36 bitrate=1848.5kbits/s speed=0.0462x    frame=  450 fps=2.8 q=42.0 size=    1661kB time=00:00:07.44 bitrate=1828.6kbits/s speed=0.0463x    frame=  453 fps=2.8 q=42.0 size=    1661kB time=00:00:07.50 bitrate=1814.0kbits/s speed=0.0462x    frame=  458 fps=2.8 q=42.0 size=    1661kB time=00:00:07.60 bitrate=1790.1kbits/s speed=0.0466x    frame=  459 fps=2.8 q=42.0 size=    1661kB time=00:00:07.62 bitrate=1785.4kbits/s speed=0.0462x    frame=  462 fps=2.8 q=42.0 size=    1661kB time=00:00:07.68 bitrate=1771.4kbits/s speed=0.0464x    frame=  464 fps=2.8 q=42.0 size=    1661kB time=00:00:07.72 bitrate=1762.3kbits/s speed=0.0464x    frame=  465 fps=2.8 q=42.0 size=    1661kB time=00:00:07.74 bitrate=1757.7kbits/s speed=0.0463x    frame=  466 fps=2.8 q=42.0 size=    1661kB time=00:00:07.76 bitrate=1753.2kbits/s speed=0.0461x    frame=  471 fps=2.8 q=42.0 size=    1661kB time=00:00:07.86 bitrate=1730.9kbits/s speed=0.0464x    frame=  473 fps=2.8 q=42.0 size=    1661kB time=00:00:07.90 bitrate=1722.1kbits/s speed=0.0464x    frame=  474 fps=2.8 q=42.0 size=    1661kB time=00:00:07.92 bitrate=1717.8kbits/s speed=0.0463x    frame=  477 fps=2.8 q=42.0 size=    1661kB time=00:00:07.98 bitrate=1704.9kbits/s speed=0.0464x    frame=  480 fps=2.8 q=42.0 size=    1661kB time=00:00:08.04 bitrate=1692.1kbits/s speed=0.0462x    frame=  486 fps=2.8 q=42.0 size=    1661kB time=00:00:08.16 bitrate=1667.3kbits/s speed=0.0462x    frame=  489 fps=2.8 q=42.0 size=    1661kB time=00:00:08.22 bitrate=1655.1kbits/s speed=0.0464x    frame=  490 fps=2.8 q=42.0 size=    1661kB time=00:00:08.24 bitrate=1651.1kbits/s speed=0.0464x    frame=  492 fps=2.7 q=42.0 size=    1661kB time=00:00:08.28 bitrate=1643.1kbits/s speed=0.0463x    frame=  496 fps=2.7 q=42.0 size=    1661kB time=00:00:08.36 bitrate=1627.4kbits/s speed=0.0463x    frame=  497 fps=2.7 q=42.0 size=    1661kB time=00:00:08.38 bitrate=1623.5kbits/s speed=0.0462x    frame=  500 fps=2.4 q=-1.0 Lsize=    3661kB time=00:00:09.94 bitrate=3017.0kbits/s speed=0.047x    
video:3657kB audio:0kB subtitle:0kB other streams:0kB global headers:0kB muxing overhead: 0.117234%
bench: utime=781.644s
bench: maxrss=3679836kB
[libx264 @ 0x443e120] frame I:3     Avg QP:39.62  size:103717
[libx264 @ 0x443e120] frame P:63    Avg QP:41.74  size: 15017
[libx264 @ 0x443e120] frame B:434   Avg QP:42.23  size:  5730
[libx264 @ 0x443e120] consecutive B-frames:  0.8%  0.0%  0.0%  1.6%  4.0%  3.6% 11.2% 17.6% 61.2%
[libx264 @ 0x443e120] mb I  I16..4: 33.3% 62.6%  4.1%
[libx264 @ 0x443e120] mb P  I16..4:  0.1%  0.3%  0.0%  P16..4: 19.6%  0.6%  3.6%  0.0%  0.0%    skip:75.8%
[libx264 @ 0x443e120] mb B  I16..4:  0.0%  0.0%  0.0%  B16..8: 24.2%  0.0%  0.0%  direct: 0.0%  skip:75.7%  L0:45.6% L1:54.4% BI: 0.0%
[libx264 @ 0x443e120] final ratefactor: 34.58
[libx264 @ 0x443e120] 8x8 transform intra:62.9% inter:92.0%
[libx264 @ 0x443e120] direct mvs  spatial:99.1% temporal:0.9%
[libx264 @ 0x443e120] coded y,uvDC,uvAC intra: 28.4% 21.4% 3.3% inter: 0.2% 0.2% 0.0%
[libx264 @ 0x443e120] i16 v,h,dc,p:  9% 28%  2% 61%
[libx264 @ 0x443e120] i8 v,h,dc,ddl,ddr,vr,hd,vl,hu: 11%  3% 24%  9% 14%  8% 14%  6% 10%
[libx264 @ 0x443e120] i4 v,h,dc,ddl,ddr,vr,hd,vl,hu:  4%  4%  2% 14% 19% 12% 20%  8% 17%
[libx264 @ 0x443e120] i8c dc,h,v,p: 15% 68%  8%  8%
[libx264 @ 0x443e120] Weighted P-Frames: Y:3.2% UV:1.6%
[libx264 @ 0x443e120] ref P L0: 72.5% 15.0%  7.0%  1.5%  1.1%  0.9%  0.7%  0.2%  0.2%  0.2%  0.1%  0.2%  0.1%  0.1%  0.1%  0.1%
[libx264 @ 0x443e120] ref B L0: 95.3%  3.0%  1.1%  0.2%  0.1%  0.1%  0.1%  0.0%  0.0%  0.0%  0.0%  0.0%  0.0%  0.0%  0.0%
[libx264 @ 0x443e120] ref B L1: 98.2%  1.8%
[libx264 @ 0x443e120] kb/s:2995.17
